<?xml version="1.0" encoding="UTF-8" standalone="no"?>
<svg
   height="108px"
   viewBox="0 -960 960 960"
   width="108px"
   version="1.1"
   xmlns="http://www.w3.org/2000/svg">
  <!-- Scale transform to add padding - shrink to 60% and center -->
  <g transform="translate(192, -192) scale(0.6, 0.6)">
    <path
       d="m 764,-172 v -22 h -56 v -563 q 0,-21.5 -16.25,-37.75 Q 675.5,-811 654,-811 H 306 q -21.5,0 -37.75,16.25 Q 252,-778.5 252,-757 v 563 h -56 v 22 z m -404,-22 h -86 v -563 q 0,-14 9,-23 9,-9 23,-9 h 128 v -3 q -32,2 -53,25.7 -21,23.7 -21,55.3 z m 159.81,-261 q -9.81,0 -17.31,-7.69 -7.5,-7.7 -7.5,-17.5 0,-9.81 7.69,-17.31 7.7,-7.5 17.5,-7.5 9.81,0 17.31,7.69 7.5,7.7 7.5,17.5 0,9.81 -7.69,17.31 -7.7,7.5 -17.5,7.5 z"
       style="fill:#ffffff" />
  </g>
</svg>
